<svg version="1.1" viewBox="0 0 88.342 88.342" xmlns="http://www.w3.org/2000/svg"><title>ETH Zürich</title><g id="ETH_zurich_logo" transform="translate(3.7967 15.944)" data-name="ETH zurich logo"><g id="ETH_Zurich_short" data-name="ETH Zurich short"><path d="m16.004-15.944h48.74c10.97 0 19.801 8.8312 19.801 19.801v48.74c0 10.97-8.8312 19.801-19.801 19.801h-48.74c-10.97 0-19.801-8.8312-19.801-19.801v-48.74c0-10.97 8.8312-19.801 19.801-19.801z" fill="#fff" stroke-linecap="round" stroke-linejoin="round" stroke-width="2.2753" style="paint-order:markers stroke fill"/><polygon transform="translate(-.80065 .90735)" points="25.25 35.08 11.27 35.08 12.12 30.81 26.09 30.81 27.5 23.83 13.52 23.83 14.37 19.56 36.52 19.56 31.84 42.84 41.55 42.84 46.22 19.56 54.37 19.56 49.69 42.84 59.4 42.84 61.79 30.81 68.78 30.81 66.38 42.84 76.08 42.84 82.32 11.8 72.62 11.8 70.16 23.83 63.18 23.83 65.63 11.8 6.26 11.8 0.03 42.84 23.7 42.84"/></g></g></svg>
